<svg xmlns="http://www.w3.org/2000/svg" width="73.495" height="73.495" viewBox="0 0 73.495 73.495"><path d="M79.5,69.287A10.206,10.206,0,0,1,69.287,79.5H16.208A10.207,10.207,0,0,1,6,69.287V16.208A10.207,10.207,0,0,1,16.208,6h53.08A10.206,10.206,0,0,1,79.5,16.208Z" transform="translate(-6 -6)" fill="#3f51b5"/><path d="M46.208,37.5H39.332v26.54H29.125V37.5H23V29.332h6.125v-4.92C29.129,17.25,32.1,13,40.541,13H47.5v8.166H42.829c-3.285,0-3.5,1.225-3.5,3.518v4.649H47.5Z" transform="translate(11.706 1.291)" fill="#fff"/></svg>