<svg xmlns="http://www.w3.org/2000/svg" width="78.145" height="76.219" viewBox="0 0 78.145 76.219"><path d="M43.072,4a39.076,39.076,0,0,0-12.35,76.148c1.959.356,2.671-.839,2.671-1.882,0-.929-.038-3.383-.051-6.639-10.875,2.353-13.164-5.24-13.164-5.24-1.781-4.515-4.337-5.724-4.337-5.724-3.549-2.416.267-2.366.267-2.366,3.917.28,5.978,4.019,5.978,4.019,3.485,5.978,9.145,4.248,11.371,3.256a8.408,8.408,0,0,1,2.48-5.228c-8.674-.979-17.794-4.337-17.794-19.307a15.143,15.143,0,0,1,4.019-10.493,14.1,14.1,0,0,1,.382-10.34s3.281-1.043,10.747,4.006a37.17,37.17,0,0,1,19.562,0C60.319,19.161,63.588,20.2,63.588,20.2c2.137,5.38.8,9.361.394,10.34a15.077,15.077,0,0,1,4.006,10.493c0,15.008-9.132,18.3-17.832,19.282,1.4,1.2,2.646,3.587,2.646,7.224,0,5.228-.038,9.438-.038,10.722,0,1.043.7,2.264,2.684,1.882A39.081,39.081,0,0,0,43.072,4Z" transform="translate(-4 -4)" fill-rule="evenodd"/></svg>