<svg xmlns="http://www.w3.org/2000/svg" width="67.588" height="67.588" viewBox="0 0 67.588 67.588"><path d="M70.93,31.175H68.208v-.14H37.794V44.553h19.1a20.292,20.292,0,1,1-5.647-21.9L60.8,13.094a33.759,33.759,0,1,0,10.784,24.7A34.024,34.024,0,0,0,70.93,31.175Z" transform="translate(-4 -4)" fill="#ffc107"/><path d="M6.306,22.065l11.1,8.143a20.235,20.235,0,0,1,32.246-7.555l9.559-9.559A33.728,33.728,0,0,0,6.306,22.065Z" transform="translate(-2.41 -4)" fill="#ff3d00"/><path d="M36.28,55a33.636,33.636,0,0,0,22.657-8.773L48.478,37.374a20.224,20.224,0,0,1-31.263-9.32L6.195,36.545A33.767,33.767,0,0,0,36.28,55Z" transform="translate(-2.486 12.59)" fill="#4caf50"/><path d="M57.137,20.14H54.414V20H24V33.518H43.1a20.344,20.344,0,0,1-6.906,9.413l.005,0,10.459,8.851c-.74.673,11.137-8.122,11.137-25.019A34.024,34.024,0,0,0,57.137,20.14Z" transform="translate(9.794 7.035)" fill="#1976d2"/></svg>