<svg xmlns="http://www.w3.org/2000/svg" width="250.382" height="136.818" viewBox="0 0 250.382 136.818"><g transform="translate(0 -86.783)"><path d="M34.9,233.134l2.015,5.469,129.45,75.735,10.557.753-4.693-5.944L39.591,233.134Z" transform="translate(73.46 -146.351)" fill="#424242"/><path d="M51.907,283.667a5.078,5.078,0,0,1,2.56-4.338l80.491-46.2,141.953,81.957a18.089,18.089,0,0,1-9.045,15.666l-75.25,32.884c-6.1,3.521-20.411-3.8-26.509-7.319L62.25,295.392c-6.447-3.723-10.35-2.8-10.35-10.24v-1.488Z" transform="translate(-26.53 -146.351)" fill="#e8edef"/><path d="M52.919,339.254l122.887,78.378a19.407,19.407,0,0,0,19.546,0l81.668-44.178a18.089,18.089,0,0,1-9.045,15.666l-77.688,37.166c-6.1,3.521-11.73,2.08-17.828-1.441l-99.986-64.44c.145-.1-17.8-10.5-17.8-10.5a7.876,7.876,0,0,1-1.758-1.6,8.732,8.732,0,0,1-1.148-2.167S51.207,338.266,52.919,339.254Z" transform="translate(-26.637 -204.714)" fill="#c8ced6"/><path d="M485.6,350.96c0,.036-.007.072-.007.108v-.112Z" transform="translate(-485.598 -198.72)" fill="#d1d1d1"/><path d="M98.274,372.713l17.706,10.274v.949l-6.756,3.91-17.772-10.2v-1.022Z" transform="translate(102.986 -208.39)" fill="#284363"/><path d="M109.182,390.039l6.8-3.918v.949l-6.756,3.91-17.772-10.2v-1.022Z" transform="translate(102.986 -211.524)" fill="#212938"/><path d="M117.032,381.923,134.738,392.2v.949l-9.367,5.448L107.6,388.4v-1.022Z" transform="translate(75.258 -212.484)" fill="#284363"/><path d="M125.329,402.016l9.41-5.455v.949l-9.367,5.448-17.772-10.2V391.74Z" transform="translate(75.258 -216.847)" fill="#212938"/><path d="M152.87,361.333l17.706,10.273v.949L161.209,378l-17.772-10.2v-1.022Z" transform="translate(19.51 -203.332)" fill="#284363"/><path d="M161.167,381.425l9.41-5.455v.949l-9.368,5.447-17.772-10.2v-1.022Z" transform="translate(19.51 -207.695)" fill="#212938"/><path d="M186.17,366.163l17.706,10.274v.949l-9.367,5.448-17.772-10.2v-1.022Z" transform="translate(-32.288 -205.479)" fill="#284363"/><path d="M194.467,386.255l9.409-5.455v.949l-9.367,5.448L176.737,377v-1.022Z" transform="translate(-32.288 -209.842)" fill="#212938"/><path d="M211.49,375.489,229.2,385.763v.949l-9.367,5.448-17.772-10.2v-1.021Z" transform="translate(-71.674 -209.624)" fill="#284363"/><path d="M219.787,395.582l9.409-5.455v.949l-9.367,5.447-17.772-10.2v-1.021Z" transform="translate(-71.674 -213.988)" fill="#212938"/><path d="M247.134,354.96l17.706,10.274v.949l-9.368,5.448-17.771-10.2v-1.021Z" transform="translate(-127.12 -200.5)" fill="#284363"/><path d="M255.431,375.053l9.41-5.455v.949l-9.368,5.448L237.7,365.8v-1.021Z" transform="translate(-127.12 -204.863)" fill="#212938"/><path d="M283.522,334.1l17.706,10.274v.949l-9.367,5.447-17.772-10.2v-1.021Z" transform="translate(-183.722 -191.229)" fill="#284363"/><path d="M291.819,354.195l9.41-5.455v.949l-9.367,5.448-17.772-10.2v-1.021Z" transform="translate(-183.722 -195.592)" fill="#212938"/><path d="M221.989,345.481,239.7,355.754v.949l-9.367,5.448-17.772-10.2v-1.022Z" transform="translate(-88.006 -196.286)" fill="#284363"/><path d="M230.286,365.573l9.41-5.455v.949l-9.367,5.448-17.772-10.2V355.3Z" transform="translate(-88.006 -200.649)" fill="#212938"/><path d="M258.058,324.526,275.764,334.8v.949L266.4,341.2,248.625,331V329.98Z" transform="translate(-144.112 -186.973)" fill="#284363"/><path d="M266.355,344.619l9.41-5.455v.949L266.4,345.56l-17.772-10.2v-1.021Z" transform="translate(-144.112 -191.336)" fill="#212938"/><path d="M294.2,304.045l17.706,10.274v.949l-9.367,5.447-17.772-10.2V309.5Z" transform="translate(-200.33 -177.869)" fill="#284363"/><path d="M302.5,324.137l9.41-5.455v.949l-9.367,5.448-17.772-10.2v-1.022Z" transform="translate(-200.33 -182.232)" fill="#212938"/><path d="M188.575,340.8l17.706,10.274v.949l-9.367,5.448-17.772-10.2v-1.021Z" transform="translate(-36.029 -194.207)" fill="#284363"/><path d="M196.872,360.9l9.41-5.455v.949l-9.367,5.447-17.772-10.2V350.62Z" transform="translate(-36.029 -198.571)" fill="#212938"/><path d="M224.508,319.946l17.706,10.273v.949l-9.367,5.447-17.772-10.2V325.4Z" transform="translate(-91.924 -184.937)" fill="#284363"/><path d="M232.8,340.038l9.41-5.455v.949l-9.367,5.447-17.772-10.2v-1.022Z" transform="translate(-91.924 -189.3)" fill="#212938"/><path d="M260.468,299.136l17.706,10.274v.949l-9.368,5.448-17.771-10.2V304.59Z" transform="translate(-147.861 -175.687)" fill="#284363"/><path d="M268.765,319.229l9.41-5.455v.949l-9.368,5.448-17.771-10.2v-1.021Z" transform="translate(-147.861 -180.051)" fill="#212938"/><path d="M296.358,278.49l17.706,10.274v.949l-9.368,5.447-17.771-10.2v-1.021Z" transform="translate(-203.689 -166.511)" fill="#284363"/><path d="M304.654,298.583l9.41-5.455v.949l-9.368,5.448-17.771-10.2v-1.021Z" transform="translate(-203.689 -170.874)" fill="#212938"/><path d="M128.326,392.285l9.433-5.453,24.658,14.257v.949l-9.367,5.448-24.724-14.168V392.3Z" transform="translate(36.064 -214.666)" fill="#284363"/><path d="M162.418,405.46v.949l-9.367,5.448L128.326,397.69v-1.022l24.682,14.248Z" transform="translate(36.064 -219.038)" fill="#212938"/><path d="M149.316,401.9l9.414-5.443,27.14,15.708v.949l-9.368,5.448-27.2-15.653v-1.021Z" transform="translate(0.962 -218.944)" fill="#284363"/><path d="M185.87,416.528v.949l-9.368,5.448-27.2-15.653v-1l27.163,15.71Z" transform="translate(0.962 -223.307)" fill="#212938"/><path d="M215.116,406.245l-.019.011v-.022Z" transform="translate(-64.838 -223.29)" fill="#292929"/><path d="M179.54,418.128,197.246,428.4v.949l-9.367,5.448-17.772-10.2v-1.021Z" transform="translate(-21.975 -228.576)" fill="#284363"/><path d="M187.837,438.221l9.41-5.455v.949l-9.367,5.448-17.772-10.2v-1.021Z" transform="translate(-21.975 -232.939)" fill="#212938"/><path d="M215.389,397.425,233.1,407.7v.949l-9.367,5.447-17.772-10.2v-1.021Z" transform="translate(-77.739 -219.374)" fill="#284363"/><path d="M223.686,417.517l9.41-5.455v.949l-9.367,5.448-17.772-10.2v-1.021Z" transform="translate(-77.739 -223.737)" fill="#212938"/><path d="M251.133,335.191l57.473,33.349v.949l-9.367,5.448L241.7,341.666v-1.021Z" transform="translate(-173.107 -191.713)" fill="#284363"/><path d="M299.2,378.359l9.41-5.455v.949l-9.367,5.448L241.7,346.029v-1.021Z" transform="translate(-173.107 -196.076)" fill="#212938"/><path d="M358.782,314.653l17.706,10.273v.949l-9.368,5.448-17.771-10.2v-1.021Z" transform="translate(-300.791 -182.584)" fill="#284363"/><path d="M367.079,334.745l9.409-5.455v.949l-9.368,5.448-17.771-10.2v-1.021Z" transform="translate(-300.791 -186.947)" fill="#212938"/><path d="M133.979,352.066l17.706,10.274v.949l-6.757,3.91L127.157,357v-1.021Z" transform="translate(47.446 -199.213)" fill="#284363"/><path d="M144.887,369.392l6.8-3.918v.949l-6.757,3.91-17.771-10.2v-1.021Z" transform="translate(47.446 -202.347)" fill="#212938"/><path d="M170.026,331.278l17.706,10.274v.949l-6.756,3.911-17.772-10.2v-1.022Z" transform="translate(-8.626 -189.974)" fill="#284363"/><path d="M180.934,348.6l6.8-3.918v.949l-6.756,3.911L163.2,339.35v-1.022Z" transform="translate(-8.626 -193.107)" fill="#212938"/><path d="M205.959,310.489l17.706,10.274v.949l-6.756,3.91-17.772-10.2v-1.021Z" transform="translate(-64.521 -180.734)" fill="#284363"/><path d="M216.867,327.815l6.8-3.918v.949l-6.756,3.91-17.772-10.2v-1.021Z" transform="translate(-64.521 -183.867)" fill="#212938"/><path d="M241.607,289.816l17.706,10.274v.949l-6.757,3.911-17.771-10.2v-1.021Z" transform="translate(-119.973 -171.545)" fill="#284363"/><path d="M252.515,307.142l6.8-3.918v.949l-6.757,3.911-17.771-10.2v-1.021Z" transform="translate(-119.973 -174.678)" fill="#212938"/><path d="M277.523,269.185l17.706,10.274v.949l-6.756,3.911-17.772-10.2V273.1Z" transform="translate(-175.841 -162.375)" fill="#284363"/><path d="M288.431,286.511l6.8-3.918v.949l-6.756,3.911-17.772-10.2v-1.021Z" transform="translate(-175.841 -165.509)" fill="#212938"/><path d="M309.659,302.676l20.962-12.2,10.807,6.34v.949l-10.573,6.246,16.453,9.512-.013.015v.949l-9.367,5.448-28.269-16.221V302.7Z" transform="translate(-249.562 -171.84)" fill="#284363"/><g transform="translate(60.097 124.98)"><path d="M320.244,308.59l11.434-6.7v.949l-10.573,6.246Z" transform="translate(-299.909 -301.893)" fill="#212938"/><path d="M337.857,328.8l.049-.028,0,0,9.41-5.455v.949l-9.367,5.448-28.269-16.221v-1.021l7.446,4.3Z" transform="translate(-309.683 -306.595)" fill="#212938"/></g></g></svg>