<svg xmlns="http://www.w3.org/2000/svg" width="1131.432" height="543" viewBox="0 0 1131.432 543"><g transform="translate(-939.568 -333)"><path d="M-1985.751,3637a53.981,53.981,0,0,1-53.981-53.98,53.92,53.92,0,0,1,23.148-44.314h-178.264A57.153,57.153,0,0,1-2252,3481.554a57.153,57.153,0,0,1,57.153-57.153h157.375a57.49,57.49,0,0,1-16.736-40.625,57.681,57.681,0,0,1,51.231-57.319H-2215.7a36.729,36.729,0,0,1-36.729-36.729A36.729,36.729,0,0,1-2215.7,3253h780.523a36.729,36.729,0,0,1,36.729,36.729,36.735,36.735,0,0,1-31.595,36.373h251.371A57.675,57.675,0,0,1-1121,3383.777a57.675,57.675,0,0,1-57.675,57.675h-156.548a56.973,56.973,0,0,1,16.432,40.1,57.1,57.1,0,0,1-25.339,47.486h54.448a53.98,53.98,0,0,1,53.98,53.98,53.981,53.981,0,0,1-53.98,53.98Z" transform="translate(3192 -2920)" fill="#ffbc61"/><circle cx="31" cy="31" r="31" transform="translate(1006 430)" fill="#ff6161"/><circle cx="63" cy="63" r="63" transform="translate(1724 750)" fill="#ff782a"/></g></svg>