<svg xmlns="http://www.w3.org/2000/svg" width="74.347" height="74.346" viewBox="0 0 74.347 74.346"><path d="M80.347,70.021A10.324,10.324,0,0,1,70.021,80.347H16.326A10.326,10.326,0,0,1,6,70.021V16.326A10.326,10.326,0,0,1,16.326,6H70.021A10.324,10.324,0,0,1,80.347,16.326Z" transform="translate(-6 -6)" fill="#0288d1"/><path d="M12,26.456H22.326V61.564H12Zm5.132-4.13h-.058A4.941,4.941,0,0,1,12,17.161,4.968,4.968,0,0,1,17.192,12a4.951,4.951,0,0,1,5.134,5.161A4.972,4.972,0,0,1,17.132,22.326ZM61.564,61.564H51.238V42.773c0-4.539-2.53-7.637-6.592-7.637a5.92,5.92,0,0,0-5.59,4.11,14.9,14.9,0,0,0-.209,3.732V61.564H28.521V26.456H38.847v5.4c1.489-2.3,3.821-5.4,9.785-5.4,7.389,0,12.93,4.647,12.93,15.022l0,20.086Z" transform="translate(0.391 0.391)" fill="#fff"/></svg>