<svg xmlns="http://www.w3.org/2000/svg" xmlns:xlink="http://www.w3.org/1999/xlink" width="274.087" height="398.822" viewBox="0 0 274.087 398.822"><defs><linearGradient id="a" x1="0.939" y1="0.5" x2="-0.806" y2="0.29" gradientUnits="objectBoundingBox"><stop offset="0" stop-color="#242424"/><stop offset="0.117" stop-color="#3a3a3a"/><stop offset="1" stop-color="#dfdfdf"/></linearGradient><linearGradient id="c" x1="0.034" y1="0.016" x2="0.864" y2="0.91" gradientUnits="objectBoundingBox"><stop offset="0" stop-color="#147fdc"/><stop offset="1" stop-color="#1a0666"/></linearGradient><filter id="d" x="25.019" y="69.75" width="86.891" height="59.589" filterUnits="userSpaceOnUse"><feOffset dy="4" input="SourceAlpha"/><feGaussianBlur stdDeviation="3" result="e"/><feFlood flood-opacity="0.49"/><feComposite operator="in" in2="e"/><feComposite in="SourceGraphic"/></filter><filter id="f" x="25.019" y="93.901" width="74.29" height="52.239" filterUnits="userSpaceOnUse"><feOffset dy="4" input="SourceAlpha"/><feGaussianBlur stdDeviation="3" result="g"/><feFlood flood-opacity="0.49"/><feComposite operator="in" in2="g"/><feComposite in="SourceGraphic"/></filter><filter id="h" x="25.019" y="121.203" width="86.891" height="59.589" filterUnits="userSpaceOnUse"><feOffset dy="4" input="SourceAlpha"/><feGaussianBlur stdDeviation="3" result="i"/><feFlood flood-opacity="0.49"/><feComposite operator="in" in2="i"/><feComposite in="SourceGraphic"/></filter><filter id="j" x="25.019" y="146.404" width="86.891" height="59.589" filterUnits="userSpaceOnUse"><feOffset dy="4" input="SourceAlpha"/><feGaussianBlur stdDeviation="3" result="k"/><feFlood flood-opacity="0.49"/><feComposite operator="in" in2="k"/><feComposite in="SourceGraphic"/></filter><filter id="l" x="126.733" y="112.996" width="19" height="117" filterUnits="userSpaceOnUse"><feOffset dx="4" dy="2" input="SourceAlpha"/><feGaussianBlur stdDeviation="3" result="m"/><feFlood flood-opacity="0.349"/><feComposite operator="in" in2="m"/><feComposite in="SourceGraphic"/></filter></defs><g transform="translate(-1266.267 -270.504)"><g transform="translate(1309.854 516.815)"><path d="M3488.309-2627.242l88.743-25.615,65.967,38.381-44.621,50.535Z" transform="translate(-3488.309 2716.452)" fill="url(#a)"/><path d="M3488.645-2640.823l88.39-12.034L3643-2614.475l-44.677,36.829Z" transform="translate(-3488.292 2730.103)" fill="url(#a)"/><g transform="translate(58.147)"><path d="M3362.846-2628.413l66.1,38.1-.019,76.434-66.247-38.23Z" transform="translate(-3351.134 2628.421)" fill="#444"/><path d="M3362.846-2628.413l66.1,38.1-.019,76.434-66.247-38.23Z" transform="translate(-3362.684 2634.721)" fill="#737373"/><path d="M3351.835-2622.115l11.583-6.305,66.007,38.2-11.5,6.2Z" transform="translate(-3351.677 2628.421)"/><path d="M3414.793-2585.83l11.519-6.312.016,76.51-11.563,6.287Z" transform="translate(-3348.527 2630.237)"/></g><path d="M3637.786-2616.338l-.016,14.137-44.588,36.4Z" transform="translate(-3483.06 2718.28)"/></g><g transform="translate(1266.267 270.504)"><path d="M3530.889-2967.979l264.531,152.815-.324,203.4-264.3-152.353Z" transform="translate(-3521.349 2967.992)" fill="#646464"/><path d="M3530.889-2967.979l264.531,152.815-.324,203.4-264.3-152.353Z" transform="translate(-3530.799 2973.242)" fill="#8a8a8a"/><path d="M3518.338-2984.991l-9.313,5.406L3773.4-2826.991l9.458-5.175Z" transform="translate(-3508.788 2984.991)" fill="#434141"/><path d="M3782.823-2822.275l9.467-5.194-.358,203.438-9.46,5.247Z" transform="translate(-3518.204 2980.274)" fill="#131212"/><path d="M3530.881-2967.979l242.063,139.837-.3,186.125L3530.8-2781.43Z" transform="translate(-3520.612 2985.219)" fill="url(#c)"/></g><path d="M3551.345-2930.858l216.091,126.569V-2681.3L3551.2-2805.029Z" transform="translate(-2263.511 3245.604)" fill="#fff" stroke="#ebeaea" stroke-linecap="round" stroke-linejoin="round" stroke-width="2"/><g transform="matrix(1, 0, 0, 1, 1266.27, 270.5)" filter="url(#d)"><line x2="66.153" y2="38.852" transform="translate(35.39 76.12)" fill="none" stroke="#707070" stroke-linecap="round" stroke-width="2"/></g><g transform="matrix(1, 0, 0, 1, 1266.27, 270.5)" filter="url(#f)"><line x2="53.553" y2="31.502" transform="translate(35.39 100.27)" fill="none" stroke="#707070" stroke-linecap="round" stroke-width="2"/></g><g transform="matrix(1, 0, 0, 1, 1266.27, 270.5)" filter="url(#h)"><line x2="66.153" y2="38.852" transform="translate(35.39 127.57)" fill="none" stroke="#707070" stroke-linecap="round" stroke-width="2"/></g><g transform="matrix(1, 0, 0, 1, 1266.27, 270.5)" filter="url(#j)"><line x2="66.153" y2="38.852" transform="translate(35.39 152.77)" fill="none" stroke="#707070" stroke-linecap="round" stroke-width="2"/></g><g transform="translate(1291 322)" fill="none" stroke="#f96161" stroke-width="1"><ellipse cx="1" cy="2" rx="1" ry="2" stroke="none"/><ellipse cx="1" cy="2" rx="0.5" ry="1.5" fill="none"/></g><g transform="translate(1293 324)" fill="none" stroke="#f9e561" stroke-width="1"><ellipse cx="1.5" cy="2" rx="1.5" ry="2" stroke="none"/><ellipse cx="1.5" cy="2" rx="1" ry="1.5" fill="none"/></g><g transform="translate(1297 326)" fill="none" stroke="#f9a361" stroke-width="1"><ellipse cx="1" cy="2.5" rx="1" ry="2.5" stroke="none"/><ellipse cx="1" cy="2.5" rx="0.5" ry="2" fill="none"/></g><g transform="matrix(1, 0, 0, 1, 1266.27, 270.5)" filter="url(#l)"><line y2="99" transform="translate(132.23 120)" fill="none" stroke="#707070" stroke-width="1" opacity="0.09"/></g><path d="M3677.785-2829.723v59.321l56.867,31.2.663-58.855Z" transform="translate(-2258 3256)" fill="#f1f1f1"/><line y2="47" transform="translate(1426.5 439.5)" fill="none" stroke="#707070" stroke-linecap="round" stroke-width="0.5"/><line x2="52" y2="30" transform="translate(1422.5 480.5)" fill="none" stroke="#707070" stroke-linecap="round" stroke-width="0.5"/><path d="M0,20.756,8.367,0l6.385,22.974L25.269,3.588,36.7,2.118" transform="matrix(0.966, 0.259, -0.259, 0.966, 1436.14, 457.463)" fill="none" stroke="#d30f0f" stroke-linecap="round" stroke-width="0.3"/><path d="M0,5.013,14.722,0,28.292,10.944l8.563-6.352" transform="matrix(0.966, 0.259, -0.259, 0.966, 1433.933, 465.064)" fill="none" stroke="#41d2be" stroke-linecap="round" stroke-width="0.3"/><path d="M3670.135-2839.073l70.566,40.324v72.807l-70.566-40.324Z" transform="translate(-2258 3253)" fill="none" stroke="#707070" stroke-linecap="round" stroke-linejoin="round" stroke-width="1" stroke-dasharray="3 3"/></g></svg>