<svg xmlns="http://www.w3.org/2000/svg" width="95.843" height="58.833" viewBox="0 0 95.843 58.833"><g transform="translate(0.001 -98.86)"><g transform="translate(-0.001 98.86)"><path d="M.4,138.205a16.034,16.034,0,0,0,2.4,2.4c.4.332,1.152.951,2.314,1.806,1.092.8,2.055,1.454,2.828,1.977.9.607,3.1,2.031,5.659,3.518l3.661,2.128a1.057,1.057,0,0,1-.136-.094,1.092,1.092,0,0,0,.136.094c1.037.595,2.458,1.409,3.815,2.121,1.119.588,2.388,1.254,4.36,2.169a36.294,36.294,0,0,0,5.781,2.2l-.014,0,3.591.873.052.012-.048-.01c.068.016.129.028.193.043s.144.033.21.046l.05.008h0c.045.009.087.015.13.022-.043-.007-.084-.013-.129-.022.177.036.355.072.507.1.172.03.4.061.577.075a7.243,7.243,0,0,0,1.627-.019,8.008,8.008,0,0,0,2.994-1.06l5.089-2.938,5.089-2.938,5.089-2.938,5.089-2.938,5.089-2.938,5.089-2.938,5.089-2.938,5.089-2.938,5.089-2.938,5.089-2.938h0a5.484,5.484,0,0,0,.772-.546,6.646,6.646,0,0,0,.7-.689,7.622,7.622,0,0,0,.733-.982c.031-.055.076-.124.109-.178.055-.089.1-.176.2-.365.03-.056.067-.131.1-.187,0,0-.008.005-.019,0,.011,0,.017,0,.019,0l1.13-2.3h0a2.52,2.52,0,0,0,.254-1.028,2.141,2.141,0,0,0-.229-1.052,5.081,5.081,0,0,0-.632-.9c-.245-.275-.586-.628-.848-.887-.183-.181-.44-.408-.631-.58a47.686,47.686,0,0,0-4.833-3.687c-2.787-1.911-5-3.216-6.621-4.169a1.379,1.379,0,0,0-.308-.132l-3.661-2.127h0a69.355,69.355,0,0,0-13.056-6.207l-.14-.041a1.136,1.136,0,0,0-.14-.041,2.288,2.288,0,0,1-.28-.082l-.14-.041-.28-.082-.14-.041-.28-.082-.28-.082-.14-.041-.28-.082-.28-.082-.14-.041-.273-.08h0l-.005,0h0c-.433-.119-1.005-.291-1.441-.4-.752-.18-1.756-.424-2.519-.55-.9-.149-2.11-.314-3.018-.411-.589-.063-1.38-.094-1.972-.122-.938-.044-2.71,0-3.325.048-.505.041-1.182.077-1.685.141-.975.123-2.27.316-3.239.48-.51.086-1.183.238-1.687.355s-1.181.277-1.68.422c-1.008.293-2.344.709-3.341,1.038-.517.171-1.195.431-1.7.628s-1.2.47-1.706.7c-1.031.459-2.4,1.093-3.413,1.585-.014.007-1.5.737-3.448,1.861h0l-3.087,1.782h0c-.441.266-1.034.613-1.469.888s-1.035.658-1.463.963-1.021.7-1.443,1.028-1.007.761-1.43,1.1-.992.805-1.409,1.159a63.078,63.078,0,0,0-6.714,6.68c-.357.413-1.306,1.508-2.491,3.04-.733.946-1.7,2.216-2.356,3.22-.329.507-.792,1.166-1.122,1.673s-.758,1.2-1.082,1.711-.737,1.218-1.041,1.747c-.843,1.468-1.121,2-1.947,3.593-.284.546-.636,1.287-.9,1.841a1.079,1.079,0,0,0-.056.155A1.889,1.889,0,0,0,.4,138.205Z" transform="translate(0.001 -98.864)" fill="#3e3d43"/><path d="M184.046,100.358c-.433-.119-1.007-.292-1.445-.4-.752-.18-1.756-.424-2.519-.55-.9-.149-2.11-.314-3.018-.411-.589-.063-1.38-.094-1.972-.122-.938-.044-2.71,0-3.325.048-.505.041-1.181.077-1.685.141-.975.123-2.27.316-3.239.48-.51.086-1.183.238-1.687.355s-1.181.277-1.68.423c-1.008.293-2.344.709-3.341,1.038-.517.171-1.195.431-1.7.628s-1.2.47-1.706.7c-1.031.459-2.4,1.093-3.413,1.585-.014.007-1.5.737-3.448,1.861.868-.5,7.044,2.309,14.535,6.662,11.791-6.808,23.275-9,32.693-6.23A69.367,69.367,0,0,0,184.046,100.358Z" transform="translate(-121.812 -98.86)" fill="#3e3d43"/></g><path d="M136.465,137.447c.868-.5,7.044,2.309,14.535,6.662l3.661,2.127c8.088,4.7,14.648,9.421,14.652,10.544l-3.087,1.782c0-1.122-6.564-5.844-14.652-10.544l-3.661-2.128c-7.492-4.354-13.668-7.163-14.535-6.662Z" transform="translate(-108.412 -31.316)" fill="#c60024"/><path d="M201.209,211.7c-9.726,5.615-18.874,16.156-24.7,28.46-.157.33-.11.653.1.7l3.591.873a5.883,5.883,0,0,0,4.248-.887l50.892-29.383a6.59,6.59,0,0,0,2.444-2.773l1.13-2.3c.381-.77.289-1.534-.2-1.676l-2.8-.821c-9.11-2.676-20.218-.559-31.623,6.026Z" transform="translate(-143.394 -84.454)" fill="#1d1d1f"/><path d="M.4,144.7a16.033,16.033,0,0,0,2.4,2.4c.4.332,1.152.951,2.314,1.806,1.092.8,2.055,1.454,2.828,1.977.9.607,3.1,2.031,5.659,3.518l3.661,2.128a1.058,1.058,0,0,1-.136-.094,1.092,1.092,0,0,0,.136.094c1.037.595,2.458,1.409,3.815,2.121,1.119.588,2.388,1.254,4.36,2.169a36.294,36.294,0,0,0,5.781,2.2l-.014,0,3.591.873.052.012-.048-.01c.068.016.129.028.193.043s.144.033.21.046l.05.008h0c.045.009.087.015.13.022-.043-.007-.084-.013-.129-.022.177.036.355.071.507.1.172.03.4.061.577.075a7.242,7.242,0,0,0,1.627-.019,8.008,8.008,0,0,0,2.994-1.06l5.089-2.938,5.089-2.938,5.089-2.938,5.089-2.938,5.089-2.938,5.089-2.938,5.089-2.938,5.089-2.938,5.089-2.938,5.089-2.938h0a5.485,5.485,0,0,0,.772-.546,6.645,6.645,0,0,0,.7-.689,7.621,7.621,0,0,0,.733-.982c.031-.055.076-.124.109-.178.055-.089.1-.176.2-.365.03-.056.067-.131.1-.187,0,0-.008.005-.019,0,.011,0,.017,0,.019,0l1.13-2.3h0a2.52,2.52,0,0,0,.254-1.028,2.141,2.141,0,0,0-.229-1.052,5.08,5.08,0,0,0-.632-.9c-.245-.275-.586-.628-.848-.887-.183-.181-.44-.408-.631-.58a47.684,47.684,0,0,0-4.833-3.687c-2.787-1.911-5-3.216-6.621-4.169a1.379,1.379,0,0,0-.308-.132l-3.661-2.127h0a69.355,69.355,0,0,0-13.056-6.207l-.14-.041a1.137,1.137,0,0,0-.14-.041,2.288,2.288,0,0,1-.28-.082l-.14-.041-.28-.082-.14-.041-.28-.082-.28-.082-.14-.041-.28-.082-.28-.082-.14-.041-.28-.082a69.328,69.328,0,0,1,13.055,6.207c-9.418-2.767-20.9-.578-32.693,6.23l3.661,2.128c11.791-6.808,23.275-9,32.693-6.23h0c8.088,4.7,14.169,9.513,13.581,10.748l2.8.821c.49.141.582.905.2,1.676l-1.13,2.3h0a6.589,6.589,0,0,1-2.444,2.773L41.059,162.892a5.883,5.883,0,0,1-4.248.887.376.376,0,0,1-.088.12.372.372,0,0,0,.088-.12l-3.591-.873c-.212-.049-.26-.371-.1-.7,5.825-12.3,14.972-22.845,24.7-28.46,0-1.122-6.564-5.844-14.652-10.544L39.5,121.074c-7.492-4.354-13.668-7.163-14.535-6.662-.441.266-1.034.613-1.469.888s-1.035.658-1.463.963-1.021.7-1.443,1.028-1.007.761-1.43,1.1-.992.805-1.409,1.159a63.079,63.079,0,0,0-6.714,6.68c-.357.413-1.306,1.508-2.491,3.04-.733.946-1.7,2.216-2.356,3.22-.329.507-.792,1.166-1.122,1.673s-.758,1.2-1.082,1.711-.737,1.218-1.041,1.747c-.843,1.468-1.121,2-1.947,3.593-.284.546-.636,1.287-.9,1.841a1.078,1.078,0,0,0-.056.155A1.883,1.883,0,0,0,.4,144.7Z" transform="translate(-0.002 -6.497)" fill="#2e2e30"/><g transform="translate(52.366 104.052)"><path d="M279.743,131.444q.29.237.626.461.111.074.226.146c.081.051.161.1.246.151a10.6,10.6,0,0,0,1.031.522h0q.509.225,1.052.409h0q.19-.228.389-.446h0q-.2.218-.389.446l.06.019c.134-.159.291-.339.472-.531.13-.138.306-.317.443-.448s.328-.3.469-.427c.056-.051.122-.107.189-.162s.129-.105.192-.154c.044-.034.086-.065.126-.094.273-.2.646-.443.931-.62.121-.065.261-.141.4-.214s.286-.142.414-.193.273-.11.393-.148l.139-.043A4.545,4.545,0,0,1,287.6,130l.124-.021c.131-.021.277-.039.395-.047.036,0,.077,0,.119,0h.119l.081,0,.036,0,.045,0s.043,0,.1.012l.1.017c.038.007.078.016.117.027s.062.018.088.027l.028.01.026.01h0a1.253,1.253,0,0,1,.126.116,2.059,2.059,0,0,1,.239.309,2.979,2.979,0,0,1,.231.437c.016.038.034.08.05.124.034.087.067.182.1.271.014.045.027.088.038.128.016.057.031.118.047.183a5.751,5.751,0,0,1,.107.584c.016.127.033.3.04.426.009.152.018.355.014.507s-.007.276-.013.4c0,.086-.009.171-.016.263,0,.008,0,.017,0,.025.212-.024.423-.052.633-.084l.23-.036c.45-.074.893-.167,1.326-.278h0c.452-.116.892-.251,1.317-.407h0l.1-.034c0-.126-.011-.286-.024-.461,0-.062-.009-.112-.013-.157s-.008-.086-.014-.132-.012-.1-.021-.161-.019-.142-.033-.243c-.008-.053-.018-.115-.029-.176s-.024-.123-.034-.175c-.019-.092-.048-.213-.069-.3-.006-.026-.013-.054-.021-.083-.023-.087-.051-.183-.074-.259s-.043-.139-.067-.209l-.024-.069c-.018-.051-.041-.11-.064-.169l-.034-.087L293,130.21c-.022-.055-.049-.119-.078-.182s-.059-.126-.086-.179c-.071-.138-.167-.32-.25-.451-.066-.1-.158-.242-.229-.344-.041-.059-.1-.135-.144-.191-.074-.095-.161-.2-.233-.276l-.066-.071c-.049-.052-.095-.1-.136-.14-.082-.082-.146-.142-.188-.179l-.045-.04-.082-.071-.083-.07-.058-.047c-.059-.047-.123-.1-.177-.137s-.116-.082-.179-.124l-.182-.121c-.055-.036-.132-.079-.189-.113h0l-.234-.136-.155-.084-.156-.082-.094-.045-.095-.044c-.178-.082-.371-.153-.458-.183-.061-.021-.133-.044-.206-.066l-.207-.061c-.065-.019-.153-.037-.219-.053l-.106-.023c-.075-.015-.156-.029-.231-.041l-.108-.015c-.121-.016-.283-.035-.4-.04l-.131-.005-.139,0h-.086c-.078,0-.182,0-.26.006l-.169.011-.169.014-.138.016-.138.019-.117.018c-.129.022-.292.053-.5.1a7.961,7.961,0,0,0-1.258.433c-.256.112-.492.231-.692.338-.133.071-.249.137-.343.192-.141.082-.232.14-.254.155l-.215.138-.078.051-.086.057-.067.046-.105.074-.082.058c-.342.245-.612.469-.615.47-.317.264-.435.363-.6.513l-.146.135c-.051.047-.1.1-.145.137l-.223.22c-.112.111-.165.165-.229.231l-.112.119C280.454,130.558,280.091,130.991,279.743,131.444Zm3.627,1.181c.111-.121.224-.239.339-.354h0q-.172.173-.339.354Z" transform="translate(-279.743 -126.593)" fill="#c6c5cb"/><path d="M325.754,144.425h0l.08,0h0Z" transform="translate(-317.141 -141.087)" fill="#c6c5cb"/><path d="M328.864,144.921l-.028-.01Z" transform="translate(-319.646 -141.482)" fill="#c6c5cb"/><path d="M329.138,145.026a1.253,1.253,0,0,1,.126.116A1.273,1.273,0,0,0,329.138,145.026Z" transform="translate(-319.891 -141.575)" fill="#c6c5cb"/><path d="M329.376,127.63l-.207-.061Z" transform="translate(-319.917 -127.386)" fill="#c6c5cb"/><path d="M299.7,144.057c3.243-1.872,5.918-.581,6.251,2.861h0c-.258-2.653-1.907-4.026-4.135-3.658h-.005c-.1.017-.2.038-.309.062l-.07.017c-.083.021-.167.043-.252.069l-.1.031c-.077.025-.154.051-.231.079l-.112.042c-.075.029-.151.06-.227.093l-.117.05c-.079.036-.159.074-.24.114l-.106.052c-.115.059-.231.122-.348.189q-.325.188-.641.407t-.622.468a12.529,12.529,0,0,0-1.7,1.693h0A11.34,11.34,0,0,1,299.7,144.057Z" transform="translate(-293.553 -140.089)" fill="#c6c5cb"/><path d="M322.28,126.608c-.08,0-.18-.007-.271-.009.09,0,.191.006.271.009.122.005.283.024.4.04l.108.015-.108-.015C322.564,126.632,322.4,126.614,322.28,126.608Z" transform="translate(-314.098 -126.598)" fill="#c6c5cb"/><path d="M328.217,127.339c-.065-.019-.153-.037-.219-.053C328.064,127.3,328.152,127.321,328.217,127.339Z" transform="translate(-318.965 -127.156)" fill="#c6c5cb"/></g><g transform="translate(61.61 107.501)"><path d="M329.125,145.018h0Z" transform="translate(-329.125 -145.018)" fill="#acabb1"/><path d="M330.094,148.772c.007-.091.012-.177.016-.263.006-.129.009-.257.013-.4s-.006-.355-.014-.507c-.007-.128-.025-.3-.04-.426a5.746,5.746,0,0,0-.107-.584c-.015-.064-.031-.126-.047-.183-.011-.04-.024-.083-.038-.128-.028-.089-.062-.184-.1-.271-.017-.044-.034-.086-.05-.124a2.979,2.979,0,0,0-.231-.437,2.068,2.068,0,0,0-.239-.309,1.253,1.253,0,0,0-.126-.116h0l.027.01a4.184,4.184,0,0,1,1.565,3.659c0,.008,0,.016,0,.025-.21.031-.421.06-.633.084C330.092,148.789,330.093,148.78,330.094,148.772Z" transform="translate(-329.132 -145.019)" fill="#acabb1"/><path d="M330.842,148.735a4.183,4.183,0,0,0-1.565-3.659c.041.018.07.034.095.047a4.022,4.022,0,0,1,1.7,3.6l-.23.036C330.842,148.751,330.842,148.743,330.842,148.735Z" transform="translate(-329.249 -145.065)" fill="#acabb1"/></g><g transform="translate(52.366 104.052)"><path d="M328.986,144.965l.024.009h0Z" transform="translate(-319.768 -141.526)" fill="#d8d8da"/><path d="M328.455,144.794c-.026-.009-.054-.018-.088-.027Z" transform="translate(-319.265 -141.365)" fill="#d8d8da"/><path d="M319.781,144.81c-.134.025-.3.07-.445.114C319.483,144.88,319.647,144.835,319.781,144.81Z" transform="translate(-311.924 -141.4)" fill="#d8d8da"/><path d="M327.857,144.652c-.039-.011-.08-.019-.117-.027C327.778,144.632,327.818,144.641,327.857,144.652Z" transform="translate(-318.755 -141.25)" fill="#d8d8da"/><path d="M327.286,144.552c-.038-.007-.074-.013-.1-.017Z" transform="translate(-318.302 -141.177)" fill="#d8d8da"/><path d="M320.715,143.967c-.083.021-.167.043-.252.069C320.548,144.01,320.632,143.988,320.715,143.967Z" transform="translate(-312.841 -140.715)" fill="#d8d8da"/><path d="M322.49,143.541c-.1.017-.2.038-.309.062C322.285,143.579,322.388,143.558,322.49,143.541Z" transform="translate(-314.237 -140.369)" fill="#d8d8da"/><path d="M325.837,144.429l-.08,0Z" transform="translate(-317.144 -141.087)" fill="#d8d8da"/><path d="M324.97,143.614l-.234-.136a.941.941,0,0,1,.109.076l-.024-.009-.028-.01c-.026-.009-.054-.018-.088-.027s-.08-.019-.117-.027-.074-.013-.1-.017c-.062-.008-.1-.012-.1-.012l-.045,0,.036,0,.135-.233a4.318,4.318,0,0,0-.642.058c2.228-.368,3.878,1,4.135,3.658-.433.111-.876.2-1.326.278A4.022,4.022,0,0,0,324.97,143.614Z" transform="translate(-315.603 -140.107)" fill="#d8d8da"/><path d="M329.119,145.012h0Z" transform="translate(-319.874 -141.563)" fill="#d8d8da"/><path d="M328.646,144.681h0a.939.939,0,0,0-.109-.076c.048.028.093.058.139.089Z" transform="translate(-319.401 -141.232)" fill="#d8d8da"/><path d="M328.535,144.6l.234.136a1.015,1.015,0,0,0-.095-.047C328.628,144.661,328.582,144.631,328.535,144.6Z" transform="translate(-319.401 -141.232)" fill="#d8d8da"/><path d="M326.186,144.444l.036,0-.036,0Z" transform="translate(-317.491 -141.103)" fill="#d8d8da"/><path d="M321.879,143.874l-.07.017Z" transform="translate(-313.935 -140.639)" fill="#d8d8da"/><path d="M322.771,144.448c-.118.008-.264.026-.395.047C322.507,144.474,322.653,144.456,322.771,144.448Z" transform="translate(-314.395 -141.106)" fill="#d8d8da"/><path d="M323.838,143.536h0Z" transform="translate(-315.58 -140.365)" fill="#d8d8da"/><path d="M325.12,144.423h0Z" transform="translate(-316.626 -141.086)" fill="#d8d8da"/><path d="M326.186,144.444h0Z" transform="translate(-317.492 -141.103)" fill="#d8d8da"/><path d="M314.832,143.457l-.036,0-.036,0h0l-.08,0h-.119c-.042,0-.083,0-.119,0-.118.008-.264.026-.395.047l-.124.021c-.134.025-.3.07-.445.114l-.139.043c-.12.038-.276.1-.393.148s-.271.12-.414.193-.283.15-.4.214a.163.163,0,0,0,.081-.152q.175-.1.348-.189l.106-.052c.08-.04.16-.078.24-.114l.117-.05c.076-.032.152-.064.227-.093l.113-.042c.078-.028.155-.055.231-.079l.1-.031c.085-.025.169-.048.252-.069l.07-.017c.1-.024.207-.045.309-.062h.005a4.294,4.294,0,0,1,.642-.058Z" transform="translate(-306.066 -140.111)" fill="#d8d8da"/><path d="M298.687,148.58c-.04.029-.082.06-.126.094-.064.049-.129.1-.192.154s-.133.112-.189.162c-.141.128-.332.3-.469.427s-.313.31-.443.448c-.182.193-.339.373-.472.531l-.06-.019a12.54,12.54,0,0,1,1.7-1.693q.306-.248.622-.468c.211-.146.424-.282.641-.407a.163.163,0,0,1-.081.152C299.333,148.137,298.96,148.385,298.687,148.58Z" transform="translate(-293.555 -143.838)" fill="#d8d8da"/><path d="M326.424,126.986c-.075-.015-.156-.029-.231-.041C326.268,126.956,326.349,126.97,326.424,126.986Z" transform="translate(-317.498 -126.879)" fill="#d8d8da"/><path d="M280.948,130.034c.064-.067.116-.12.229-.231l.223-.22c.043-.042.093-.09.145-.137l.146-.135c.16-.15.279-.249.6-.513,0,0,.273-.225.615-.47l.082-.058.105-.074.067-.046.086-.057.078-.051.215-.138c.022-.014.113-.072.254-.155.094-.055.21-.121.343-.192.2-.107.436-.226.691-.338a7.936,7.936,0,0,1,1.258-.433c.208-.052.372-.083.5-.1l.117-.018.138-.019.138-.016.169-.014.169-.011c.078,0,.182-.007.26-.006h.086c.09,0,.19.006.27.009.122.005.283.024.4.04l.108.015c.075.012.157.026.231.041l.106.023c.066.016.154.035.219.053l.207.061c.072.022.144.045.206.066.086.03.279.1.458.183l.095.044.094.045.156.082.155.084c-1.449-.826-3.448-.7-5.652.572a15.013,15.013,0,0,0-4.344,3.993q-.335-.223-.626-.461c.348-.453.711-.886,1.092-1.292C280.882,130.1,280.916,130.067,280.948,130.034Z" transform="translate(-279.744 -126.594)" fill="#d8d8da"/><path d="M287.43,128.887c2.2-1.273,4.2-1.4,5.652-.572l.234.136c-1.449-.826-3.448-.7-5.652.572a15.016,15.016,0,0,0-4.352,4q-.116-.072-.226-.146A15.006,15.006,0,0,1,287.43,128.887Z" transform="translate(-282.46 -127.568)" fill="#d8d8da"/><path d="M294.934,130.095c-1.373-.782-3.264-.663-5.352.542a14.114,14.114,0,0,0-4.013,3.648,10.555,10.555,0,0,1-1.031-.522c-.085-.049-.165-.1-.246-.15a15.025,15.025,0,0,1,4.352-4c2.2-1.273,4.2-1.4,5.652-.572h0c.057.034.133.077.189.113l.182.121c.063.043.126.086.179.124s.118.09.177.137l.058.047.083.07.082.071.045.04c.042.038.106.1.188.179.041.041.086.088.136.14l.066.071c.072.08.159.182.233.276.044.057.1.132.144.191.071.1.163.239.229.344.083.131.179.314.25.451.027.053.057.115.086.179s.056.127.078.182l.032.081.034.087c.023.059.045.118.064.169.008.021.016.046.024.069.024.07.049.146.067.209s.051.173.074.259c.008.029.014.057.021.083.021.091.05.213.069.3.01.053.023.114.034.175s.022.123.029.176c.014.1.025.178.033.243s.015.115.021.161.01.087.014.132.008.095.013.157c.013.175.02.335.024.461l-.1.034C297.064,132.381,296.233,130.835,294.934,130.095Z" transform="translate(-283.441 -128.155)" fill="#d8d8da"/></g><g transform="translate(54.494 105.496)"><path d="M295.131,136.847a11.341,11.341,0,0,0-2.966,2.571q-.543-.183-1.052-.409a14.116,14.116,0,0,1,4.011-3.645c2.088-1.205,3.979-1.324,5.352-.542,1.3.74,2.129,2.285,2.222,4.479a13.673,13.673,0,0,1-1.317.407C301.049,136.265,298.374,134.974,295.131,136.847Z" transform="translate(-291.114 -134.323)" fill="#c6c5cb"/><path d="M295.126,135.347c2.088-1.205,3.979-1.324,5.352-.542,1.3.74,2.13,2.286,2.222,4.482h0c-.092-2.194-.924-3.739-2.222-4.479-1.373-.782-3.264-.663-5.352.542A14.115,14.115,0,0,0,291.113,139h0A14.1,14.1,0,0,1,295.126,135.347Z" transform="translate(-291.113 -134.31)" fill="#c6c5cb"/></g><path d="M293.347,157.059c.588-1.235-5.494-6.048-13.581-10.748-9.418-2.767-20.9-.578-32.693,6.23,8.088,4.7,14.648,9.422,14.652,10.544C273.129,156.5,284.237,154.383,293.347,157.059Z" transform="translate(-200.823 -37.62)" fill="#3e3d43"/><g transform="translate(61.02 121.531)"><path d="M328.1,255.16c-1.3.748-2.795-.894-1.806-2.017a42.137,42.137,0,0,1,10.6-9.2,38.591,38.591,0,0,1,2.3,4.8Z" transform="translate(-325.972 -239.457)" fill="#a50020"/><path d="M395.77,223.253a27.021,27.021,0,0,1,11.01-3.284h.047a1.382,1.382,0,0,1,.671,2.58l-9.428,5.458A41.134,41.134,0,0,0,395.77,223.253Z" transform="translate(-382.704 -219.969)" fill="#a50020"/></g></g></svg>