<svg xmlns="http://www.w3.org/2000/svg" width="94.835" height="57.3" viewBox="0 0 94.835 57.3"><g transform="translate(0 -101.324)"><path d="M94.83,119.6c.058-1.42-.85-2.853-2.727-3.937L69.987,102.9a14.427,14.427,0,0,0-13.093,0l-54.2,31.5C.9,135.436.005,136.8.007,138.171c0,0,0-.009,0-.013L0,140.468c0,1.381.907,2.764,2.732,3.818l22.116,12.769a14.429,14.429,0,0,0,13.093,0l54.2-31.5c1.79-1.04,2.687-2.4,2.69-3.766l.007-2.31C94.835,119.522,94.832,119.561,94.83,119.6Z" transform="translate(0 -0.001)" fill="#fff"/><g transform="translate(0 101.324)"><path d="M500.136,199.351l-.007,2.31c0,1.364-.9,2.725-2.69,3.766l.007-2.31C499.236,202.076,500.132,200.715,500.136,199.351Z" transform="translate(-405.301 -181.194)" fill="#f1f1f1"/><g transform="translate(0 21.923)"><path d="M0,302.49l.007-2.31c0,1.381.907,2.764,2.732,3.818l-.007,2.31C.907,305.254,0,303.871,0,302.49Z" transform="translate(0 -285.27)" fill="#f1f1f1"/><path d="M259.043,219.683l-.007,2.31-54.2,31.5.006-2.31Z" transform="translate(-166.898 -219.683)" fill="#f1f1f1"/></g><path d="M36.875,333.559l-.007,2.31L14.752,323.1l.007-2.31Z" transform="translate(-12.02 -280.139)" fill="#f1f1f1"/><path d="M147.253,389.723l-.007,2.31a14.429,14.429,0,0,1-13.093,0l.007-2.31A14.429,14.429,0,0,0,147.253,389.723Z" transform="translate(-109.305 -336.304)" fill="#f1f1f1"/><path d="M92.132,115.664c3.626,2.094,3.645,5.49.041,7.584l-54.2,31.5a14.429,14.429,0,0,1-13.093,0L2.768,141.975c-3.627-2.094-3.645-5.49-.041-7.584l54.2-31.5a14.427,14.427,0,0,1,13.093,0Z" transform="translate(-0.029 -101.324)" fill="#2e2e30"/></g><path d="M115.776,140.017,86.862,123.373,34.934,153.551l28.914,16.644Z" transform="translate(-28.463 -17.965)" fill="#fff"/><g transform="translate(49.928 114.334)"><path d="M155.4,274.645c-1.35-.78-1.358-2.043-.016-2.823a5.371,5.371,0,0,1,4.874,0c1.35.78,1.357,2.043.016,2.823a5.371,5.371,0,0,1-4.874,0m6-3.486a7.892,7.892,0,0,0-7.163,0c-1.972,1.146-1.962,3,.023,4.149a7.893,7.893,0,0,0,7.163,0c1.972-1.146,1.961-3-.023-4.149" transform="translate(-147.393 -267.01)"/><path d="M203.418,262.53l-2.232-1.288-2.217,1.288,2.232,1.288,2.217-1.288" transform="translate(-185.043 -259.631)" fill="#acabb1"/><path d="M219.964,281.183l-2.232-1.288-2.217,1.288,2.232,1.288,2.217-1.288" transform="translate(-198.524 -274.829)" fill="#acabb1"/><path d="M172.588,253.83l-2.232-1.288-2.217,1.288,2.232,1.288,2.217-1.288" transform="translate(-159.923 -252.542)" fill="#acabb1"/><path d="M175.61,306.958l-2.232-1.288-2.217,1.289,2.231,1.288,2.217-1.289" transform="translate(-162.386 -295.829)" fill="#acabb1"/><path d="M128.233,279.606,126,278.318l-2.217,1.288,2.232,1.288,2.217-1.288" transform="translate(-123.784 -273.544)" fill="#acabb1"/><path d="M141.675,298.411l-2.232-1.288-2.217,1.288,2.232,1.288,2.217-1.288" transform="translate(-134.736 -288.865)" fill="#acabb1"/><path d="M203.62,298.41l-2.232-1.288-2.217,1.289L201.4,299.7l2.217-1.289" transform="translate(-185.207 -288.865)" fill="#acabb1"/><path d="M141.473,262.53l-2.232-1.288-2.217,1.288,2.232,1.288,2.217-1.288" transform="translate(-134.572 -259.631)" fill="#acabb1"/></g><g transform="translate(11.703 108.632)"><path d="M393.1,145.852l-8.522-4.92a1.413,1.413,0,0,0-1.282,0,.393.393,0,0,0,0,.743l8.522,4.92a1.413,1.413,0,0,0,1.283,0,.393.393,0,0,0,0-.743" transform="translate(-323.785 -140.778)" fill="#fff"/><path d="M73.248,331.01l-8.522-4.92a1.413,1.413,0,0,0-1.283,0,.393.393,0,0,0,0,.743l8.522,4.92a1.413,1.413,0,0,0,1.283,0,.393.393,0,0,0,0-.743" transform="translate(-63.18 -291.64)" fill="#fff"/></g><path d="M433.037,238.075l-7.676,4.412a1.364,1.364,0,0,0-.619,1.072c0,.394.28.552.623.354l7.676-4.412a1.363,1.363,0,0,0,.619-1.071c0-.394-.28-.553-.623-.355" transform="translate(-346.069 -111.351)" fill="#ffbc61"/><path d="M443.014,174.4a1.655,1.655,0,0,0-1.5,0,.46.46,0,0,0,0,.87,1.655,1.655,0,0,0,1.5,0,.46.46,0,0,0,0-.87" transform="translate(-359.481 -59.39)" fill="#fff"/><path d="M-37.505,50.529l15.9-9.13a8.921,8.921,0,0,1,2.139-.307c2.313.125,2.163.7,2.3,1.275a2.7,2.7,0,0,1-.586,1.3l-15.7,9.195Z" transform="translate(70.684 84.771)" fill="#444"/></g></svg>